HIERARCHY
ROOT Hips
{
	OFFSET 0.00000 0.00000 0.00000
	CHANNELS 6 Xposition Yposition Zposition Yrotation Zrotation Xrotation 
	JOINT Lumbar
	{
		OFFSET 0 0 0
		CHANNELS 3 Zrotation Xrotation Yrotation
		JOINT Neck
		{
			OFFSET 0.00 0.2701 0.00
			CHANNELS 3 Zrotation Xrotation Yrotation
			End Site
			{
				OFFSET 0.00 0.1379 0.00
			}
		}
		JOINT RightShoulder
		{
			OFFSET 0.0119 0.2289 0.1181
			CHANNELS 3 Zrotation Xrotation Yrotation
			JOINT RightElbow
			{
				OFFSET 0.00 -0.1475 0.00
				CHANNELS 2 Zrotation Yrotation
				JOINT RightWrist
				{
					OFFSET 0.00 -0.1605 0.00
					CHANNELS 2 Zrotation Xrotation
					End Site
					{
						OFFSET 0.0040 -0.1068 0.0006
					}
				}
			}
		}
		JOINT LeftShoulder
		{
			OFFSET 0.0119 0.2289 -0.1181
			CHANNELS 3 Zrotation Xrotation Yrotation
			JOINT LeftElbow
			{
				OFFSET 0.00 -0.1475 0.00
				CHANNELS 2 Zrotation Yrotation
				JOINT LeftWrist
				{
					OFFSET 0.00 -0.1605 0.00
					CHANNELS 2 Zrotation Xrotation
					End Site
					{
						OFFSET 0.0040 -0.1068 -0.0006
					}
				}
			}
		}
	}
	JOINT RightHip
	{
		OFFSET 0.0316 -0.0424 0.0458
		CHANNELS 3 Zrotation Xrotation Yrotation
		JOINT RightKnee
		{
			OFFSET 0.00 -0.2438 0.00
			CHANNELS 1 Zrotation
			JOINT RightAnkle
			{
				OFFSET 0.00 -0.2449 0.00
				CHANNELS 3 Zrotation Xrotation Yrotation
				End Site
				{
					OFFSET 0.1237 -0.0542 0.0051
				}
			}
		}
	}
	JOINT LeftHip
	{
		OFFSET 0.0316 -0.0424 -0.0458
		CHANNELS 3 Zrotation Xrotation Yrotation
		JOINT LeftKnee
		{
			OFFSET 0.00 -0.2438 0.00
			CHANNELS 1 Zrotation
			JOINT LeftAnkle
			{
				OFFSET 0.00 -0.2449 0.00
				CHANNELS 3 Zrotation Xrotation Yrotation
				End Site
				{
					OFFSET 0.1237 -0.0542 -0.0051
				}
			}
		}
	}
}
MOTION
Frames: 27
Frame Time: 0.02
1.49043 0.31386 -0.72473 358.88396 -17.85059 -12.53368 30.97244 -3.15796 -8.39033 -29.70479 -16.0669 -0.83079 -35.86042 -19.60955 0.01587 58.04 81.38756 -2.19055 -0.34945 -11.33022 25.89568 -9.0625 35.48669 -79.535 -6.92698 -1.16194 9.7875 -4.08452 32.7912 0.48903 -29.58679 -27.17913 -17.8376 7.80897 3.93638 9.08073 0.51846 -3.28515 14.76291 8.70135
1.48861 0.31363 -0.72399 358.55609 -18.05573 -12.67212 30.82705 -3.21438 -7.80639 -29.62808 -16.13947 -0.83079 -35.93287 -18.96284 -0.27506 57.60234 81.35808 -2.12891 0.97309 -11.29995 26.24166 -9.18217 35.3008 -79.54052 -6.84066 -1.26543 9.82606 -4.29222 31.36679 0.48627 -31.62548 -28.66179 -18.30741 8.24906 4.13327 9.29448 0.52028 -2.9409 14.80575 8.70486
1.48663 0.31339 -0.72305 358.18552 -18.13985 -12.74266 30.52212 -3.27889 -6.93173 -29.59673 -16.22512 -0.83079 -35.97877 -18.1636 -0.57004 57.06062 81.36728 -2.00986 2.61673 -11.26248 26.58412 -9.30202 35.09852 -79.54019 -6.67649 -1.33153 9.72246 -4.44092 29.022 0.4803 -35.25186 -31.2909 -19.11117 8.55956 4.27664 9.606 0.52203 -2.61637 14.76046 8.65343
1.48472 0.31314 -0.72219 357.85122 -18.26733 -12.82899 30.27517 -3.35493 -6.19768 -29.54802 -16.30524 -0.83079 -36.03151 -17.46215 -0.81794 56.58798 81.37065 -1.91207 4.02249 -11.24323 26.92076 -9.39582 34.9029 -79.54256 -6.55391 -1.4142 9.66183 -4.62941 27.14875 0.4756 -38.07031 -33.32123 -19.73774 8.91662 4.43096 9.86435 0.52379 -2.28783 14.75768 8.62822
1.48283 0.31293 -0.72137 357.44597 -18.44542 -12.97667 30.08858 -3.3703 -5.42266 -29.48336 -16.37953 -0.83079 -36.10655 -16.63731 -1.25471 56.0177 81.32656 -1.83287 5.80959 -11.16725 27.29129 -9.59954 34.71837 -79.54473 -6.40536 -1.50122 9.69623 -4.76847 25.02442 0.47151 -41.23 -35.66245 -20.46694 9.32763 4.63954 10.15733 0.52564 -1.93744 14.74745 8.59997
1.48085 0.31265 -0.72042 357.17944 -18.49063 -12.98367 29.74043 -3.51032 -4.66778 -29.46417 -16.47141 -0.83079 -36.12857 -16.03327 -1.30327 55.62951 81.38749 -1.70356 6.88805 -11.20421 27.58889 -9.57602 34.50127 -79.5458 -6.2922 -1.56884 9.49845 -4.9904 23.21468 0.46545 -44.06167 -37.63255 -21.06269 9.59682 4.72593 10.40051 0.52729 -1.63638 14.73066 8.56386
1.47867 0.31221 -0.7192 357.29178 -18.17543 -12.58975 28.96508 -4.02037 -4.01602 -29.55155 -16.59939 -0.83079 -36.01209 -16.09194 -0.23563 55.75407 81.75655 -1.43054 5.84692 -11.56773 27.6922 -8.90325 34.22984 -79.54698 -6.29716 -1.5982 8.6819 -5.50452 22.47835 0.45487 -45.63373 -38.31563 -21.21067 9.48063 4.45473 10.5041 0.52833 -1.48176 14.71758 8.52326
1.4764 0.31172 -0.71785 357.54748 -17.73445 -12.06203 28.03676 -4.64989 -3.39914 -29.68475 -16.74698 -0.83079 -35.84235 -16.37622 1.21558 56.06884 82.22516 -1.11248 4.0968 -12.0418 27.72072 -8.00586 33.9194 -79.54695 -6.34007 -1.60818 7.63788 -6.09429 22.08494 0.44231 -46.81363 -38.57604 -21.20805 9.23033 4.06859 10.55082 0.52918 -1.37354 14.70046 8.47589
1.47417 0.31125 -0.71655 357.7472 -17.36573 -11.61447 27.19093 -5.20684 -2.78251 -29.80238 -16.89186 -0.83079 -35.6968 -16.5471 2.46237 56.3075 82.62976 -0.82809 2.72682 -12.45634 27.77922 -7.22474 33.6057 -79.54636 -6.36485 -1.62227 6.7059 -6.61796 21.56813 0.43076 -48.16023 -39.03243 -21.28014 9.0575 3.75665 10.60975 0.53016 -1.23464 14.68462 8.42862
1.47193 0.31077 -0.71531 357.90769 -16.92923 -11.08255 26.28278 -5.84279 -2.08873 -29.89954 -17.01017 -0.83079 -35.55267 -16.75685 3.83376 56.49944 83.11372 -0.48696 1.12491 -12.91089 27.85489 -6.38227 33.38105 -79.55028 -6.39104 -1.65365 5.73389 -7.27579 20.93499 0.41912 -49.62962 -39.54939 -21.35842 8.81047 3.34972 10.7292 0.53096 -1.13723 14.66819 8.39119
1.46971 0.31029 -0.71389 358.18327 -16.60545 -10.69582 25.47271 -6.3405 -1.56643 -30.04946 -17.18933 -0.83079 -35.39043 -16.94324 5.03967 56.83448 83.45705 -0.25283 -0.16825 -13.30724 27.87663 -5.61609 32.96068 -79.54455 -6.4238 -1.64651 4.79132 -7.67007 20.57092 0.40663 -50.70541 -39.7781 -21.35726 8.68784 3.11452 10.7083 0.53207 -0.96377 14.65305 8.33341
1.4676 0.30982 -0.712 358.75279 -16.62496 -10.73857 24.95053 -6.44477 -1.52157 -30.33424 -17.52226 -0.83079 -35.21576 -16.99365 5.66969 57.52521 83.37424 -0.33596 -0.42164 -13.52605 27.77126 -5.09895 32.0206 -79.5127 -6.4701 -1.52428 4.00186 -7.34396 21.46482 0.39784 -50.99935 -39.7249 -21.40647 8.94132 3.37665 10.3091 0.53406 -0.57272 14.64413 8.21232
1.46553 0.30933 -0.70993 359.43162 -16.76232 -10.93222 24.53721 -6.40315 -1.64698 -30.66964 -17.91679 -0.83079 -35.02028 -17.01664 6.12434 58.35248 83.14879 -0.52663 -0.34392 -13.68069 27.61348 -4.66908 30.88386 -79.47112 -6.52121 -1.36681 3.24811 -6.74671 22.52592 0.3874 -50.87051 -39.32432 -21.34154 9.32496 3.8158 9.77081 0.53621 -0.10309 14.63704 8.07279
1.46344 0.30884 -0.70792 360.05289 -16.84586 -11.06108 24.08785 -6.41589 -1.6881 -30.98214 -18.29014 -0.83079 -34.8183 -17.06359 6.67614 59.11324 82.99724 -0.66128 -0.42853 -13.85784 27.47747 -4.21052 29.82863 -79.43393 -6.56741 -1.2343 2.46743 -6.25537 23.10297 0.37386 -50.78161 -38.79445 -21.16714 9.6502 4.1787 9.29904 0.53848 0.33359 14.62811 7.94788
1.46134 0.30838 -0.70597 360.71115 -16.92721 -11.17316 23.5752 -6.48036 -1.76049 -31.29824 -18.6382 -0.83079 -34.68167 -17.06959 7.16886 59.89981 82.81082 -0.82446 -0.48801 -14.06641 27.34773 -3.69916 28.80119 -79.39704 -6.62635 -1.06271 1.72167 -5.83467 25.35115 0.37582 -51.29486 -39.4198 -21.6452 9.9689 4.52387 8.81218 0.54056 0.75844 14.62213 7.79682
1.45928 0.30785 -0.70386 361.31803 -17.0413 -11.35288 23.22368 -6.40445 -1.8064 -31.61524 -19.04979 -0.83079 -34.40487 -17.1517 7.73644 60.66207 82.66191 -0.95441 -0.5115 -14.1935 27.19317 -3.31972 27.67476 -79.35698 -6.65945 -0.96519 0.91746 -5.20779 24.23302 0.34601 -50.49318 -37.61594 -20.76879 10.33212 4.94448 8.32345 0.54231 1.22539 14.61189 7.69534
1.45732 0.30713 -0.70137 361.74206 -17.23062 -11.72509 23.2796 -5.945 -1.74948 -31.94754 -19.65156 -0.83079 -33.74441 -17.44766 8.565 61.32675 82.65015 -0.96632 -0.51802 -14.10526 26.98587 -3.30047 26.28132 -79.31277 -6.61968 -1.07368 -0.07919 -4.02337 13.11327 0.2213 -45.86774 -28.73834 -15.93255 10.80488 5.57405 7.87306 0.54604 1.80093 14.57384 7.73909
1.45542 0.30633 -0.69873 362.11247 -17.44716 -12.15288 23.49701 -5.35437 -1.65757 -32.27387 -20.30919 -0.83079 -32.944 -17.82059 9.47076 61.96024 82.68049 -0.94156 -0.496 -13.93773 26.75529 -3.40983 24.80425 -79.26545 -6.55359 -1.25891 -1.12999 -2.65078 -1.26696 0.06615 -39.99276 -17.52423 -9.78954 11.31683 6.26589 7.42464 0.54638 2.41136 14.53169 7.83166
1.45352 0.30555 -0.69618 362.51608 -17.64262 -12.52791 23.64801 -4.84423 -1.57386 -32.5864 -20.92199 -0.83079 -32.20926 -18.1592 10.33195 62.60578 82.69233 -0.93345 -0.48252 -13.80999 26.53374 -3.44892 23.39155 -79.21786 -6.49961 -1.41439 -2.14097 -1.39953 -13.73323 -0.0702 -34.88328 -7.66477 -4.40093 11.79735 6.90092 6.96874 0.54955 3.00204 14.50509 7.90073
1.45151 0.30483 -0.69355 362.88653 -17.87791 -13.02418 23.77203 -4.24192 -1.52906 -32.97121 -21.62023 -0.83079 -31.46576 -18.4943 11.22787 63.26731 82.6979 -0.92804 -0.47646 -13.66451 26.3166 -3.53693 21.85575 -79.17633 -6.44529 -1.54888 -3.21751 0.01303 -28.06136 -0.22786 -28.91589 3.48444 1.69195 12.33309 7.66217 6.53359 0.55757 3.62348 14.43179 7.97892
1.44973 0.30397 -0.69104 363.31161 -18.0364 -13.27922 23.9907 -3.8011 -1.39214 -33.20243 -22.15148 -0.83079 -30.70666 -18.85519 12.07132 63.88365 82.72676 -0.90827 -0.4526 -13.53764 26.08575 -3.55734 20.56523 -79.12245 -6.38527 -1.7434 -4.16773 1.12994 -39.2339 -0.34799 -24.45492 12.44593 6.5986 12.76986 8.17332 6.06022 0.5418 4.17358 14.44092 8.04462
1.44858 0.3028 -0.68888 363.90197 -17.96509 -12.85361 24.41778 -3.84923 -1.01302 -33.01876 -22.21978 -0.83079 -29.94598 -19.26927 12.75733 64.40317 82.82422 -0.84547 -0.38552 -13.48425 25.82062 -3.31811 19.92173 -79.02768 -6.31648 -2.1055 -4.78202 1.39078 -41.38208 -0.36005 -24.36306 15.25044 8.15874 12.85067 7.97531 5.45839 0.57234 4.64658 14.80114 8.11121
1.44765 0.30149 -0.68684 364.54822 -17.81682 -12.18291 24.93615 -4.06288 -0.54079 -32.67916 -22.11533 -0.83079 -29.17292 -19.7064 13.38758 64.8728 82.94186 -0.77106 -0.30332 -13.4519 25.54323 -3.01384 19.53903 -78.92207 -6.24267 -2.52166 -5.2627 1.34542 -40.16954 -0.33282 -25.84444 15.6982 8.43969 12.84314 7.52342 4.82312 0.55898 5.0253 15.22428 8.15594
1.4466 0.30023 -0.68474 365.16765 -17.71075 -11.62402 25.42149 -4.19459 -0.10806 -32.4054 -22.08216 -0.83079 -28.4012 -20.13284 14.04001 65.35249 83.04117 -0.70976 -0.2303 -13.40875 25.27303 -2.766 19.07042 -78.82637 -6.17083 -2.89983 -5.78744 1.43424 -40.15479 -0.32146 -26.67869 16.90845 9.13395 12.92381 7.18874 4.21831 0.49194 5.35863 15.53485 8.17823
1.44563 0.29901 -0.68266 365.79184 -17.57612 -11.0646 25.87837 -4.35089 0.31357 -32.15207 -22.08242 -0.83079 -27.64373 -20.56375 14.70822 65.88846 83.17973 -0.61498 -0.14623 -13.36897 24.99488 -2.40883 18.45858 -78.70939 -6.09962 -3.33754 -6.38396 1.54924 -41.57259 -0.31912 -27.2077 19.45193 10.55551 12.80461 6.84762 3.54819 0.73284 6.053 16.1887 8.33412
1.44453 0.29769 -0.68057 366.41934 -17.48118 -10.44829 26.41214 -4.4959 0.78042 -31.81999 -21.97015 -0.83079 -26.85417 -20.98868 15.32953 66.29067 83.2418 -0.58666 -0.08212 -13.327 24.73102 -2.26279 18.21123 -78.63438 -6.02596 -3.66279 -6.79911 1.53646 -39.25663 -0.28882 -28.73099 18.69249 10.17621 13.07826 6.46004 3.00719 0.32547 5.98851 16.15651 8.21193
1.44309 0.29613 -0.6785 367.04905 -17.52378 -9.72681 27.15133 -4.57917 1.34503 -31.30227 -21.59838 -0.83079 -25.99143 -21.40064 15.83236 66.37809 83.07919 -0.75319 -0.07658 -13.28532 24.50684 -2.70962 18.88135 -78.67656 -5.94946 -3.66632 -6.74093 1.2278 -26.64974 -0.18601 -32.89449 8.81987 4.82799 14.4746 5.9949 2.8217 -1.89146 3.71274 14.09371 7.27499
